Coordinates
version=1
nRows=9
nColumns=36
inDegrees=yes

Units are S.I. units (second, meters, Newtons, ...)
If the header above contains a line with 'inDegrees', this indicates whether rotational values are in degrees (yes) or radians (no).

endheader
time	pelvis_tilt	pelvis_list	pelvis_rotation	pelvis_tx	pelvis_ty	pelvis_tz	hip_flexion_r	hip_adduction_r	hip_rotation_r	knee_angle_r	knee_angle_r_beta	ankle_angle_r	subtalar_angle_r	mtp_angle_r	hip_flexion_l	hip_adduction_l	hip_rotation_l	knee_angle_l	knee_angle_l_beta	ankle_angle_l	subtalar_angle_l	mtp_angle_l	lumbar_extension	lumbar_bending	lumbar_rotation	arm_flex_r	arm_add_r	arm_rot_r	elbow_flex_r	pro_sup_r	arm_flex_l	arm_add_l	arm_rot_l	elbow_flex_l	pro_sup_l
      2.75000000	      4.32919457	     -2.65771394	     -2.23378550	      0.26307750	      0.99763894	     -0.04413047	     -2.21155041	      2.70400832	     -5.38817853	      0.93751178	      0.01636267	      5.57007056	      3.92199435	     -7.49999987	     -1.97848990	     -2.41481669	     -9.53313834	      3.71624295	      0.06486068	      7.50555656	      5.69439245	     -7.49999987	     -4.40690124	      2.85011514	      3.12261265	     12.63064369	      1.95296666	    -24.92321575	     57.00332078	     75.01009362	      1.99094361	     -3.42743854	      0.21986499	     23.58683155	     62.23377123
      2.76666670	      4.33212732	     -2.65141371	     -2.12336592	      0.26403083	      0.99627841	     -0.04410517	     -2.27070015	      2.72457943	     -5.48979937	      0.90078926	      0.01572174	      5.71122802	      3.95141805	     -7.49999987	     -1.92892548	     -2.44227160	     -9.74517251	      3.78013112	      0.06597573	      7.88316133	      6.45740322	     -7.49999987	     -4.40692925	      2.86125505	      3.37268553	     12.38353153	      1.98077575	    -25.39967899	     56.72609007	     79.05416729	      2.69547517	     -3.25635158	     -0.26911778	     22.51318148	     63.36735521
      2.78333330	      4.34373761	     -2.60266895	     -2.06727897	      0.26452079	      0.99852797	     -0.04431763	     -2.33403299	      2.69944957	     -5.60880758	      0.87699517	      0.01530645	      5.93094622	      4.22785568	     -7.49999987	     -1.99041828	     -2.40559682	     -9.77426652	      3.65613569	      0.06381161	      7.80300882	      6.60494357	     -7.49999987	     -4.42659377	      2.79111505	      3.54969865	     12.35312846	      1.99505614	    -25.57386538	     56.01988842	     78.21267486	      3.01877685	     -3.27776727	      0.07609684	     22.28894379	     63.30557565
      2.80000000	      4.38668890	     -2.61049446	     -2.04207208	      0.26239898	      0.99699391	     -0.04405513	     -2.36886696	      2.72855548	     -5.30219954	      0.81231979	      0.01417765	      5.95967872	      4.00561908	     -7.49999987	     -2.01262089	     -2.42045922	     -9.78150594	      3.64278747	      0.06357864	      7.79279959	      6.56991649	     -7.49999987	     -4.55370230	      2.79491195	      3.23333070	     12.73532762	      1.94323020	    -24.65677186	     54.94372992	     75.00468828	      3.01381939	     -3.30466931	     -0.41195433	     22.71245543	     62.36573843
      2.81666670	      4.36518111	     -2.61490783	     -1.97817829	      0.26451196	      0.99857197	     -0.04429343	     -2.39565141	      2.74621459	     -5.41167411	      0.80189777	      0.01399576	      6.00775289	      4.20969491	     -7.49999987	     -2.01839847	     -2.44225860	     -9.78540899	      3.54188861	      0.06181762	      7.62286512	      6.60314264	     -7.49999987	     -4.48082239	      2.79126792	      3.81778604	     12.51090108	      1.92557754	    -25.74231046	     54.41594171	     79.01679236	      3.68104379	     -3.15363744	     -0.21607612	     21.87740152	     63.43340568
      2.83333330	      4.37955499	     -2.61014159	     -1.96333478	      0.26633646	      1.00617480	     -0.04666069	     -2.47067438	      2.69183823	     -5.45938129	      0.77812854	      0.01358090	      5.85367864	      4.33595841	     -7.49999987	     -2.09792191	     -2.42612249	     -9.92569542	      3.43835867	      0.06001068	      7.29338137	      6.82559751	     -7.49999987	     -4.48353536	      2.84592525	      3.53382649	     12.73291318	      1.96089163	    -25.58651700	     53.18396927	     80.58836906	      3.56685356	     -3.03016302	     -1.23495019	     22.06346726	     64.04555297
      2.85000000	      4.45992080	     -2.63776182	     -1.95839751	      0.26742357	      1.00299963	     -0.04731134	     -2.64670470	      2.65868177	     -5.34216250	      0.72406998	      0.01263741	      5.71670585	      4.30314512	     -7.49999987	     -2.27884657	     -2.39803165	    -10.02514513	      3.34308511	      0.05834784	      7.19103523	      6.96839155	     -7.49999987	     -4.55144392	      2.93088240	      3.57563486	     12.85799722	      1.88235291	    -25.60715097	     52.29537425	     80.57903256	      3.70113058	     -2.92445697	     -1.35047654	     22.03847180	     64.05087216
      2.86666670	      4.51489361	     -2.63467255	     -1.88534109	      0.26817863	      1.00306206	     -0.04665236	     -2.80387885	      2.61744464	     -5.47204566	      0.68663798	      0.01198409	      5.62304176	      4.52876648	     -7.49999987	     -2.44492606	     -2.35234291	    -10.03654748	      3.19004490	      0.05567679	      7.01044410	      7.00034220	     -7.49999987	     -4.55623865	      2.95763726	      3.65003088	     12.89545899	      1.80221604	    -25.80792534	     51.34109832	     81.26100090	      3.83550401	     -2.79740139	     -1.57200323	     21.85606004	     64.35330801
      2.88333330	      4.52230363	     -2.63594663	     -1.92356250	      0.26677802	      1.00210727	     -0.04576255	     -2.82766387	      2.60589227	     -5.38617359	      0.65700384	      0.01146688	      5.67227639	      4.55777289	     -7.49999987	     -2.53172171	     -2.33946045	    -10.08943883	      3.15649442	      0.05509122	      6.95386495	      7.10788353	     -7.49999987	     -4.55063006	      2.99774167	      3.70677386	     13.09263568	      1.71207796	    -25.68813363	     50.36527812	     81.66792076	      3.89276051	     -2.73503333	     -1.89106810	     21.88016552	     64.29347829
